<svg t="1663691086292" class="icon" viewBox="0 0 1024 1024" version="1.1" xmlns="http://www.w3.org/2000/svg" p-id="2978"
  xmlns:xlink="http://www.w3.org/1999/xlink" width="200" height="200">
  <path
    d="M512 460.8c30.72 0 51.2 20.48 51.2 51.2s-20.48 51.2-51.2 51.2-51.2-20.48-51.2-51.2 20.48-51.2 51.2-51.2m0-102.4c-87.04 0-153.6 66.56-153.6 153.6s66.56 153.6 153.6 153.6 153.6-66.56 153.6-153.6-66.56-153.6-153.6-153.6z"
    p-id="2979"></path>
  <path
    d="M517.12 296.96c168.96 0 286.72 133.12 337.92 204.8-51.2 71.68-168.96 204.8-337.92 204.8s-286.72-133.12-337.92-204.8c51.2-71.68 168.96-204.8 337.92-204.8m0-102.4c-296.96 0-460.8 307.2-460.8 307.2s158.72 307.2 460.8 307.2 460.8-307.2 460.8-307.2-163.84-307.2-460.8-307.2z"
    p-id="2980"></path>
</svg>
